<svg xmlns="http://www.w3.org/2000/svg" viewBox="0 0 1140.94 440"><defs><style>.cls-1{fill:#3dc5a4;}.cls-2{fill:#7846bf;}.cls-3{fill:none;stroke:#3dc5a4;stroke-miterlimit:10;stroke-width:3px;}</style></defs><title>logo denis</title><g id="Capa_2" data-name="Capa 2"><g id="Capa_1-2" data-name="Capa 1"><path class="cls-1" d="M401.28,221.83c1.53,13.94-3.53,26.46-7.8,39.15-10.56,31.34-29.24,56.88-56.19,75.92-29.16,20.61-61.72,33-97.65,30.12-21.81-1.76-34.76,5.32-43.84,24.71C189.57,405,180.53,417,172.5,429.44c-6.83,10.55-15.25,13.18-24,7.95-8.47-5.07-10.23-14.67-3.75-25q62-98.46,124.33-196.7c6.51-10.26,16-12.86,24.23-7.6,7.85,5,9.16,15.09,2.88,25.32-9.11,14.84-18.53,29.5-27.68,44.32-1.41,2.29-4.7,4.8-2.23,7.63,1.93,2.22,5.07.28,7.34-.69,32.26-13.72,50.7-38.22,53.65-73,2.89-34.11-11.54-60.44-40.06-79.27-5.5-3.63-8.42-2.25-11.7,3.05-17.74,28.65-35.76,57.12-53.74,85.61a45.57,45.57,0,0,1-6.47,8.63c-6,5.79-13.15,6-19.91,1.73-7-4.41-8.9-11.16-5.85-18.91a52.4,52.4,0,0,1,4.69-8.64q60.09-95.58,120.27-191.1A57,57,0,0,1,319,6.35c5.68-6.72,14.25-8.24,21.27-3.93s9.83,12.62,5.47,20.65c-5.95,11-12.56,21.6-19.54,31.93-4.14,6.12-3.24,9.14,3.06,13a152,152,0,0,1,50.25,50.6c4,6.51,6.44,7.17,10.42.18,4.7-8.28,9.85-16.33,15.23-24.19,6.54-9.56,15.74-12.07,23.66-7s10,14.72,3.9,24.37c-16,25.08-32.62,49.75-48.67,74.8-11.11,17.35-20.6,35.69-33.1,52.23-5.84,7.72-2.9,18.66,4.49,23.54,8.38,5.54,17.44,3.55,23.67-5.82C386.72,245.26,393.9,233.48,401.28,221.83Z"/><path class="cls-2" d="M80.26,118.18c0-14.16,0-27.15,0-40.14,0-9.53.09-19.06-.1-28.58-.1-5,1.78-7,6.92-7,56.17.23,112.34.14,168.51.6,12.55.11,12.88,1.6,6.36,11.92-12.64,20-25.47,39.87-37.8,60.05-3.35,5.48-7.25,7.55-13.57,7.39-14.77-.38-29.56.14-44.34-.23-6.43-.16-8.67,2.12-8.68,8.48q-.06,75.89-.59,151.77c0,6.37,2.43,9,8.73,8.66,5.24-.26,10.51,0,15.76,0,4.58,0,6.22,1.6,3.46,5.9-14,21.85-28.06,43.67-41.94,65.59-2.58,4.07-6.25,4.21-10.27,4.2-13.8,0-27.61-.38-41.39.14-7.74.3-10.22-2.22-10.16-10.07.24-32.52-.12-65-.33-97.56,0-3.4.75-7.06-1.53-10.3-4.44,1.4-5.44,5.2-7.29,8.07-13.89,21.52-27.51,43.23-41.5,64.69-6.65,10.2-17.29,12.31-25.1,5.63-6.51-5.56-7.3-13.87-1.53-23.22,11.79-19.11,23.87-38,35.79-57.07q45-71.82,90-143.66c1.22-2,2.48-3.89,3.51-5.94,4.62-9.24,2.65-17.75-5.09-22.31-7.51-4.42-16.58-2.14-22.22,6.26C99.61,90.7,94,100.35,88,109.8,86.32,112.48,85.15,115.65,80.26,118.18Z"/><path class="cls-2" d="M480.8,177.73a30.79,30.79,0,0,1,12.59,12.1,38.39,38.39,0,0,1,0,35.92,30.54,30.54,0,0,1-12.64,12.15,40,40,0,0,1-19,4.31H436V173.42h25.78A39.94,39.94,0,0,1,480.8,177.73Zm-5.29,44.79q5.3-5.21,5.29-14.71T475.51,193q-5.29-5.29-14.8-5.3h-7.94v40h7.94Q470.22,227.71,475.51,222.52Z"/><path class="cls-2" d="M558.51,218.89H520.59c.26,3.4,1.35,6,3.28,7.79a10,10,0,0,0,7.11,2.7q6.27,0,8.72-5.3h17.83a24.37,24.37,0,0,1-4.95,9.71,24.75,24.75,0,0,1-9,6.76A28.85,28.85,0,0,1,531.56,243a29.28,29.28,0,0,1-14.3-3.43,24.33,24.33,0,0,1-9.8-9.8,30.18,30.18,0,0,1-3.53-14.9,30.63,30.63,0,0,1,3.48-14.9,24.15,24.15,0,0,1,9.75-9.8,29.59,29.59,0,0,1,14.4-3.43,29.28,29.28,0,0,1,14.12,3.34,24,24,0,0,1,9.65,9.5A28.87,28.87,0,0,1,558.81,214,41.93,41.93,0,0,1,558.51,218.89Zm-16.85-9.31a8.62,8.62,0,0,0-2.94-6.86,10.82,10.82,0,0,0-7.35-2.55,10.65,10.65,0,0,0-7.11,2.45,10.86,10.86,0,0,0-3.57,7Z"/><path class="cls-2" d="M616.29,193.16q5.73,6.22,5.73,17.11v31.94H605.36V212.52q0-5.49-2.84-8.53a11.13,11.13,0,0,0-15.29,0c-1.9,2-2.84,4.87-2.84,8.53v29.69H567.63V187.53h16.76v7.25a17.58,17.58,0,0,1,6.86-5.73,21.72,21.72,0,0,1,9.7-2.11Q610.55,186.94,616.29,193.16Z"/><path class="cls-2" d="M634.91,179.25a8.42,8.42,0,0,1-2.79-6.42,8.54,8.54,0,0,1,2.79-6.52,10.15,10.15,0,0,1,7.2-2.6,10,10,0,0,1,7.11,2.6,8.54,8.54,0,0,1,2.79,6.52,8.42,8.42,0,0,1-2.79,6.42,10,10,0,0,1-7.11,2.59A10.15,10.15,0,0,1,634.91,179.25Zm15.53,8.28v54.68H633.68V187.53Z"/><path class="cls-2" d="M672.1,240.55a21.73,21.73,0,0,1-8.82-6.72,17.59,17.59,0,0,1-3.63-9.55h16.57a6.34,6.34,0,0,0,2.64,4.61,9.42,9.42,0,0,0,5.79,1.76,8.24,8.24,0,0,0,4.85-1.23,3.73,3.73,0,0,0,1.71-3.18,3.68,3.68,0,0,0-2.45-3.48,50,50,0,0,0-7.94-2.5,74.54,74.54,0,0,1-9.8-2.89,16.87,16.87,0,0,1-6.76-4.8c-1.9-2.19-2.84-5.15-2.84-8.87a15,15,0,0,1,2.6-8.58,17.41,17.41,0,0,1,7.64-6.12,29.32,29.32,0,0,1,12-2.26q10.29,0,16.22,5.1a19.86,19.86,0,0,1,6.81,13.53H691.21a6.64,6.64,0,0,0-2.5-4.51,8.67,8.67,0,0,0-5.54-1.67,7.63,7.63,0,0,0-4.5,1.13,3.59,3.59,0,0,0-1.57,3.09,3.76,3.76,0,0,0,2.5,3.52,39.73,39.73,0,0,0,7.79,2.36,85.08,85.08,0,0,1,9.9,3.08,17.18,17.18,0,0,1,6.71,4.9q2.89,3.39,3,9.07a14.41,14.41,0,0,1-2.69,8.57,17.75,17.75,0,0,1-7.75,5.93A29.55,29.55,0,0,1,684.84,243,31.5,31.5,0,0,1,672.1,240.55Z"/><path class="cls-2" d="M739.63,189.54a31.39,31.39,0,0,1,12.29-12.45,35.77,35.77,0,0,1,17.89-4.46q12.26,0,21,6.47a31,31,0,0,1,11.66,17.64H784a15,15,0,0,0-5.83-6.57,16.45,16.45,0,0,0-8.58-2.25,16,16,0,0,0-12.54,5.39q-4.8,5.38-4.8,14.41t4.8,14.4a16,16,0,0,0,12.54,5.39,16.45,16.45,0,0,0,8.58-2.25,14.87,14.87,0,0,0,5.83-6.57h18.42a30.82,30.82,0,0,1-11.66,17.6q-8.71,6.42-21,6.41a35.76,35.76,0,0,1-17.89-4.45,31.58,31.58,0,0,1-12.29-12.4,39.5,39.5,0,0,1,0-36.31Z"/><path class="cls-2" d="M812.59,200a23.78,23.78,0,0,1,8.67-9.8,22.7,22.7,0,0,1,12.25-3.43,21,21,0,0,1,10.14,2.36,17.26,17.26,0,0,1,6.72,6.17v-7.74h16.76v54.68H850.37v-7.74a18.21,18.21,0,0,1-6.81,6.18A21.16,21.16,0,0,1,833.41,243a22.23,22.23,0,0,1-12.15-3.48,24,24,0,0,1-8.67-9.9,36,36,0,0,1,0-29.65Zm34.3,5a11.8,11.8,0,0,0-17-.05q-3.48,3.59-3.47,9.85t3.47,9.95a11.66,11.66,0,0,0,17,.05q3.48-3.63,3.48-9.9T846.89,205Z"/><path class="cls-2" d="M927.94,193.16q5.73,6.22,5.73,17.11v31.94H917V212.52q0-5.49-2.84-8.53a11.13,11.13,0,0,0-15.29,0c-1.9,2-2.84,4.87-2.84,8.53v29.69H879.28V187.53H896v7.25a17.51,17.51,0,0,1,6.86-5.73,21.72,21.72,0,0,1,9.7-2.11Q922.2,186.94,927.94,193.16Z"/><path class="cls-2" d="M975.81,228v14.21h-8.53q-9.1,0-14.21-4.46T948,223.2V201.45h-6.67V187.53H948V174.2h16.76v13.33h11v13.92h-11v22a4.62,4.62,0,0,0,1.17,3.53,5.8,5.8,0,0,0,3.92,1.07Z"/><path class="cls-2" d="M1036.38,218.89H998.45c.26,3.4,1.35,6,3.28,7.79a10,10,0,0,0,7.11,2.7q6.27,0,8.72-5.3h17.83a24.48,24.48,0,0,1-4.94,9.71,24.87,24.87,0,0,1-9,6.76,28.88,28.88,0,0,1-12.06,2.45,29.28,29.28,0,0,1-14.3-3.43,24.33,24.33,0,0,1-9.8-9.8,30.18,30.18,0,0,1-3.53-14.9,30.63,30.63,0,0,1,3.48-14.9,24.15,24.15,0,0,1,9.75-9.8,29.59,29.59,0,0,1,14.4-3.43,29.28,29.28,0,0,1,14.12,3.34,24,24,0,0,1,9.65,9.5,28.87,28.87,0,0,1,3.48,14.41A44.15,44.15,0,0,1,1036.38,218.89Zm-16.86-9.31a8.62,8.62,0,0,0-2.94-6.86,10.82,10.82,0,0,0-7.35-2.55,10.65,10.65,0,0,0-7.11,2.45,10.81,10.81,0,0,0-3.57,7Z"/><path class="cls-2" d="M1069.6,189.54a19,19,0,0,1,9.8-2.6v17.74h-4.61q-6.27,0-9.41,2.69t-3.13,9.46v25.38h-16.76V187.53h16.76v9.11A22.13,22.13,0,0,1,1069.6,189.54Z"/><path class="cls-2" d="M1097.87,239.57a25.1,25.1,0,0,1-10.09-9.8,29.29,29.29,0,0,1-3.68-14.9,29,29,0,0,1,3.73-14.85,25.34,25.34,0,0,1,10.19-9.85,32.38,32.38,0,0,1,29,0,25.34,25.34,0,0,1,10.19,9.85,31.31,31.31,0,0,1,0,29.7,25.59,25.59,0,0,1-10.29,9.85,30.72,30.72,0,0,1-14.55,3.43A30.16,30.16,0,0,1,1097.87,239.57Zm22.64-14.6q3.38-3.54,3.38-10.1t-3.28-10.09a11.14,11.14,0,0,0-16.22-.05q-3.24,3.48-3.24,10.14t3.19,10.1a10.3,10.3,0,0,0,8,3.52A10.91,10.91,0,0,0,1120.51,225Z"/><line class="cls-3" x1="470.94" y1="270" x2="1096.94" y2="270"/></g></g></svg>